<svg width="375" height="120" viewBox="0 0 375 120" fill="none" xmlns="http://www.w3.org/2000/svg">
<rect width="375" height="120" fill="#0B0B0B"/>
<rect x="16" y="16" width="343" height="56" rx="28" fill="#262626"/>
<g clip-path="url(#clip0_6382_6413)">
<path d="M50.7727 41.5H49.3636C49.2803 41.0947 49.1345 40.7386 48.9261 40.4318C48.7216 40.125 48.4716 39.8674 48.1761 39.6591C47.8845 39.447 47.5606 39.2879 47.2045 39.1818C46.8485 39.0758 46.4773 39.0227 46.0909 39.0227C45.3864 39.0227 44.7481 39.2008 44.1761 39.5568C43.608 39.9129 43.1553 40.4375 42.8182 41.1307C42.4848 41.8239 42.3182 42.6742 42.3182 43.6818C42.3182 44.6894 42.4848 45.5398 42.8182 46.233C43.1553 46.9261 43.608 47.4508 44.1761 47.8068C44.7481 48.1629 45.3864 48.3409 46.0909 48.3409C46.4773 48.3409 46.8485 48.2879 47.2045 48.1818C47.5606 48.0758 47.8845 47.9186 48.1761 47.7102C48.4716 47.4981 48.7216 47.2386 48.9261 46.9318C49.1345 46.6212 49.2803 46.2652 49.3636 45.8636H50.7727C50.6667 46.4583 50.4735 46.9905 50.1932 47.4602C49.9129 47.9299 49.5644 48.3295 49.1477 48.6591C48.7311 48.9848 48.2633 49.233 47.7443 49.4034C47.2292 49.5739 46.678 49.6591 46.0909 49.6591C45.0985 49.6591 44.2159 49.4167 43.4432 48.9318C42.6705 48.447 42.0625 47.7576 41.6193 46.8636C41.1761 45.9697 40.9545 44.9091 40.9545 43.6818C40.9545 42.4545 41.1761 41.3939 41.6193 40.5C42.0625 39.6061 42.6705 38.9167 43.4432 38.4318C44.2159 37.947 45.0985 37.7045 46.0909 37.7045C46.678 37.7045 47.2292 37.7898 47.7443 37.9602C48.2633 38.1307 48.7311 38.3807 49.1477 38.7102C49.5644 39.036 49.9129 39.4337 50.1932 39.9034C50.4735 40.3693 50.6667 40.9015 50.7727 41.5ZM54.2088 44.25V49.5H52.8679V37.8636H54.2088V42.1364H54.3224C54.527 41.6856 54.8338 41.3277 55.2429 41.0625C55.6558 40.7936 56.205 40.6591 56.8906 40.6591C57.4853 40.6591 58.0062 40.7784 58.4531 41.017C58.9001 41.2519 59.2467 41.6136 59.4929 42.1023C59.7429 42.5871 59.8679 43.2045 59.8679 43.9545V49.5H58.527V44.0455C58.527 43.3523 58.3471 42.8163 57.9872 42.4375C57.6312 42.0549 57.1368 41.8636 56.5043 41.8636C56.0649 41.8636 55.6709 41.9564 55.3224 42.142C54.9777 42.3277 54.705 42.5985 54.5043 42.9545C54.3073 43.3106 54.2088 43.7424 54.2088 44.25ZM64.8892 49.7045C64.3362 49.7045 63.8343 49.6004 63.3835 49.392C62.9328 49.1799 62.5748 48.875 62.3097 48.4773C62.0445 48.0758 61.9119 47.5909 61.9119 47.0227C61.9119 46.5227 62.0104 46.1174 62.2074 45.8068C62.4044 45.4924 62.6676 45.2462 62.9972 45.0682C63.3267 44.8902 63.6903 44.7576 64.0881 44.6705C64.4896 44.5795 64.893 44.5076 65.2983 44.4545C65.8286 44.3864 66.2585 44.3352 66.5881 44.3011C66.9214 44.2633 67.1638 44.2008 67.3153 44.1136C67.4706 44.0265 67.5483 43.875 67.5483 43.6591V43.6136C67.5483 43.053 67.3949 42.6174 67.0881 42.3068C66.785 41.9962 66.3248 41.8409 65.7074 41.8409C65.0672 41.8409 64.5653 41.9811 64.2017 42.2614C63.8381 42.5417 63.5824 42.8409 63.4347 43.1591L62.1619 42.7045C62.3892 42.1742 62.6922 41.7614 63.071 41.4659C63.4536 41.1667 63.8703 40.9583 64.321 40.8409C64.7756 40.7197 65.2225 40.6591 65.6619 40.6591C65.9422 40.6591 66.2642 40.6932 66.6278 40.7614C66.9953 40.8258 67.3494 40.9602 67.6903 41.1648C68.035 41.3693 68.321 41.678 68.5483 42.0909C68.7756 42.5038 68.8892 43.0568 68.8892 43.75V49.5H67.5483V48.3182H67.4801C67.3892 48.5076 67.2377 48.7102 67.0256 48.9261C66.8134 49.142 66.5313 49.3258 66.179 49.4773C65.8267 49.6288 65.3968 49.7045 64.8892 49.7045ZM65.0938 48.5C65.6241 48.5 66.071 48.3958 66.4347 48.1875C66.8021 47.9792 67.0786 47.7102 67.2642 47.3807C67.4536 47.0511 67.5483 46.7045 67.5483 46.3409V45.1136C67.4915 45.1818 67.3665 45.2443 67.1733 45.3011C66.9839 45.3542 66.7642 45.4015 66.5142 45.4432C66.268 45.4811 66.0275 45.5152 65.7926 45.5455C65.5616 45.572 65.3741 45.5947 65.2301 45.6136C64.8816 45.6591 64.5559 45.733 64.2528 45.8352C63.9536 45.9337 63.7112 46.0833 63.5256 46.2841C63.3438 46.4811 63.2528 46.75 63.2528 47.0909C63.2528 47.5568 63.4252 47.9091 63.7699 48.1477C64.1184 48.3826 64.5597 48.5 65.0938 48.5ZM75.1321 40.7727V41.9091H70.6094V40.7727H75.1321ZM71.9276 38.6818H73.2685V47C73.2685 47.3788 73.3234 47.6629 73.4332 47.8523C73.5469 48.0379 73.6908 48.1629 73.8651 48.2273C74.0431 48.2879 74.2306 48.3182 74.4276 48.3182C74.5753 48.3182 74.6965 48.3106 74.7912 48.2955C74.8859 48.2765 74.9616 48.2614 75.0185 48.25L75.2912 49.4545C75.2003 49.4886 75.0734 49.5227 74.9105 49.5568C74.7476 49.5947 74.5412 49.6136 74.2912 49.6136C73.9124 49.6136 73.5412 49.5322 73.1776 49.3693C72.8177 49.2064 72.5185 48.9583 72.2798 48.625C72.045 48.2917 71.9276 47.8712 71.9276 47.3636V38.6818ZM83.6264 49.5L80.9673 40.7727H82.3764L84.2628 47.4545H84.3537L86.2173 40.7727H87.6491L89.4901 47.4318H89.581L91.4673 40.7727H92.8764L90.2173 49.5H88.8991L86.9901 42.7955H86.8537L84.9446 49.5H83.6264ZM94.6491 49.5V40.7727H95.9901V49.5H94.6491ZM95.331 39.3182C95.0696 39.3182 94.8442 39.2292 94.6548 39.0511C94.4692 38.8731 94.3764 38.6591 94.3764 38.4091C94.3764 38.1591 94.4692 37.9451 94.6548 37.767C94.8442 37.589 95.0696 37.5 95.331 37.5C95.5923 37.5 95.8158 37.589 96.0014 37.767C96.1908 37.9451 96.2855 38.1591 96.2855 38.4091C96.2855 38.6591 96.1908 38.8731 96.0014 39.0511C95.8158 39.2292 95.5923 39.3182 95.331 39.3182ZM102.241 40.7727V41.9091H97.7188V40.7727H102.241ZM99.0369 38.6818H100.378V47C100.378 47.3788 100.433 47.6629 100.543 47.8523C100.656 48.0379 100.8 48.1629 100.974 48.2273C101.152 48.2879 101.34 48.3182 101.537 48.3182C101.685 48.3182 101.806 48.3106 101.901 48.2955C101.995 48.2765 102.071 48.2614 102.128 48.25L102.401 49.4545C102.31 49.4886 102.183 49.5227 102.02 49.5568C101.857 49.5947 101.651 49.6136 101.401 49.6136C101.022 49.6136 100.651 49.5322 100.287 49.3693C99.9271 49.2064 99.6278 48.9583 99.3892 48.625C99.1544 48.2917 99.0369 47.8712 99.0369 47.3636V38.6818ZM105.787 44.25V49.5H104.446V37.8636H105.787V42.1364H105.901C106.105 41.6856 106.412 41.3277 106.821 41.0625C107.234 40.7936 107.783 40.6591 108.469 40.6591C109.063 40.6591 109.584 40.7784 110.031 41.017C110.478 41.2519 110.825 41.6136 111.071 42.1023C111.321 42.5871 111.446 43.2045 111.446 43.9545V49.5H110.105V44.0455C110.105 43.3523 109.925 42.8163 109.565 42.4375C109.209 42.0549 108.715 41.8636 108.082 41.8636C107.643 41.8636 107.249 41.9564 106.901 42.142C106.556 42.3277 106.283 42.5985 106.082 42.9545C105.885 43.3106 105.787 43.7424 105.787 44.25ZM120.967 49.7045C120.414 49.7045 119.912 49.6004 119.462 49.392C119.011 49.1799 118.653 48.875 118.388 48.4773C118.123 48.0758 117.99 47.5909 117.99 47.0227C117.99 46.5227 118.089 46.1174 118.286 45.8068C118.482 45.4924 118.746 45.2462 119.075 45.0682C119.405 44.8902 119.768 44.7576 120.166 44.6705C120.568 44.5795 120.971 44.5076 121.376 44.4545C121.907 44.3864 122.337 44.3352 122.666 44.3011C123 44.2633 123.242 44.2008 123.393 44.1136C123.549 44.0265 123.626 43.875 123.626 43.6591V43.6136C123.626 43.053 123.473 42.6174 123.166 42.3068C122.863 41.9962 122.403 41.8409 121.786 41.8409C121.145 41.8409 120.643 41.9811 120.28 42.2614C119.916 42.5417 119.661 42.8409 119.513 43.1591L118.24 42.7045C118.467 42.1742 118.77 41.7614 119.149 41.4659C119.532 41.1667 119.948 40.9583 120.399 40.8409C120.854 40.7197 121.301 40.6591 121.74 40.6591C122.02 40.6591 122.342 40.6932 122.706 40.7614C123.073 40.8258 123.428 40.9602 123.768 41.1648C124.113 41.3693 124.399 41.678 124.626 42.0909C124.854 42.5038 124.967 43.0568 124.967 43.75V49.5H123.626V48.3182H123.558C123.467 48.5076 123.316 48.7102 123.104 48.9261C122.892 49.142 122.609 49.3258 122.257 49.4773C121.905 49.6288 121.475 49.7045 120.967 49.7045ZM121.172 48.5C121.702 48.5 122.149 48.3958 122.513 48.1875C122.88 47.9792 123.157 47.7102 123.342 47.3807C123.532 47.0511 123.626 46.7045 123.626 46.3409V45.1136C123.57 45.1818 123.445 45.2443 123.251 45.3011C123.062 45.3542 122.842 45.4015 122.592 45.4432C122.346 45.4811 122.106 45.5152 121.871 45.5455C121.64 45.572 121.452 45.5947 121.308 45.6136C120.96 45.6591 120.634 45.733 120.331 45.8352C120.032 45.9337 119.789 46.0833 119.604 46.2841C119.422 46.4811 119.331 46.75 119.331 47.0909C119.331 47.5568 119.503 47.9091 119.848 48.1477C120.196 48.3826 120.638 48.5 121.172 48.5ZM130.938 52.9545C130.29 52.9545 129.733 52.8712 129.267 52.7045C128.801 52.5417 128.413 52.3258 128.102 52.0568C127.795 51.7917 127.551 51.5076 127.369 51.2045L128.438 50.4545C128.559 50.6136 128.712 50.7955 128.898 51C129.083 51.2083 129.337 51.3883 129.659 51.5398C129.985 51.6951 130.411 51.7727 130.938 51.7727C131.642 51.7727 132.223 51.6023 132.682 51.2614C133.14 50.9205 133.369 50.3864 133.369 49.6591V47.8864H133.256C133.157 48.0455 133.017 48.2424 132.835 48.4773C132.657 48.7083 132.4 48.9148 132.062 49.0966C131.729 49.2746 131.278 49.3636 130.71 49.3636C130.006 49.3636 129.373 49.197 128.812 48.8636C128.256 48.5303 127.814 48.0455 127.489 47.4091C127.167 46.7727 127.006 46 127.006 45.0909C127.006 44.197 127.163 43.4186 127.477 42.7557C127.792 42.089 128.229 41.5739 128.79 41.2102C129.35 40.8428 129.998 40.6591 130.733 40.6591C131.301 40.6591 131.752 40.7538 132.085 40.9432C132.422 41.1288 132.68 41.3409 132.858 41.5795C133.04 41.8144 133.18 42.0076 133.278 42.1591H133.415V40.7727H134.71V49.75C134.71 50.5 134.54 51.1098 134.199 51.5795C133.862 52.053 133.407 52.3996 132.835 52.6193C132.267 52.8428 131.634 52.9545 130.938 52.9545ZM130.892 48.1591C131.43 48.1591 131.884 48.036 132.256 47.7898C132.627 47.5436 132.909 47.1894 133.102 46.7273C133.295 46.2652 133.392 45.7121 133.392 45.0682C133.392 44.4394 133.297 43.8845 133.108 43.4034C132.919 42.9223 132.638 42.5455 132.267 42.2727C131.896 42 131.438 41.8636 130.892 41.8636C130.324 41.8636 129.85 42.0076 129.472 42.2955C129.097 42.5833 128.814 42.9697 128.625 43.4545C128.439 43.9394 128.347 44.4773 128.347 45.0682C128.347 45.6742 128.441 46.2102 128.631 46.6761C128.824 47.1383 129.108 47.5019 129.483 47.767C129.862 48.0284 130.331 48.1591 130.892 48.1591ZM140.824 49.6818C139.983 49.6818 139.258 49.4962 138.648 49.125C138.042 48.75 137.574 48.2273 137.244 47.5568C136.919 46.8826 136.756 46.0985 136.756 45.2045C136.756 44.3106 136.919 43.5227 137.244 42.8409C137.574 42.1553 138.032 41.6212 138.619 41.2386C139.21 40.8523 139.9 40.6591 140.688 40.6591C141.142 40.6591 141.591 40.7348 142.034 40.8864C142.477 41.0379 142.881 41.2841 143.244 41.625C143.608 41.9621 143.898 42.4091 144.114 42.9659C144.33 43.5227 144.438 44.2083 144.438 45.0227V45.5909H137.71V44.4318H143.074C143.074 43.9394 142.975 43.5 142.778 43.1136C142.585 42.7273 142.309 42.4223 141.949 42.1989C141.593 41.9754 141.172 41.8636 140.688 41.8636C140.153 41.8636 139.691 41.9962 139.301 42.2614C138.915 42.5227 138.617 42.8636 138.409 43.2841C138.201 43.7045 138.097 44.1553 138.097 44.6364V45.4091C138.097 46.0682 138.21 46.6269 138.438 47.0852C138.669 47.5398 138.989 47.8864 139.398 48.125C139.807 48.3598 140.282 48.4773 140.824 48.4773C141.176 48.4773 141.494 48.428 141.778 48.3295C142.066 48.2273 142.314 48.0758 142.523 47.875C142.731 47.6705 142.892 47.4167 143.006 47.1136L144.301 47.4773C144.165 47.9167 143.936 48.303 143.614 48.6364C143.292 48.9659 142.894 49.2235 142.42 49.4091C141.947 49.5909 141.415 49.6818 140.824 49.6818ZM147.818 44.25V49.5H146.477V40.7727H147.773V42.1364H147.886C148.091 41.6932 148.402 41.3371 148.818 41.0682C149.235 40.7955 149.773 40.6591 150.432 40.6591C151.023 40.6591 151.54 40.7803 151.983 41.0227C152.426 41.2614 152.771 41.625 153.017 42.1136C153.263 42.5985 153.386 43.2121 153.386 43.9545V49.5H152.045V44.0455C152.045 43.3598 151.867 42.8258 151.511 42.4432C151.155 42.0568 150.667 41.8636 150.045 41.8636C149.617 41.8636 149.235 41.9564 148.898 42.142C148.564 42.3277 148.301 42.5985 148.108 42.9545C147.915 43.3106 147.818 43.7424 147.818 44.25ZM159.632 40.7727V41.9091H155.109V40.7727H159.632ZM156.428 38.6818H157.768V47C157.768 47.3788 157.823 47.6629 157.933 47.8523C158.047 48.0379 158.191 48.1629 158.365 48.2273C158.543 48.2879 158.731 48.3182 158.928 48.3182C159.075 48.3182 159.196 48.3106 159.291 48.2955C159.386 48.2765 159.462 48.2614 159.518 48.25L159.791 49.4545C159.7 49.4886 159.573 49.5227 159.411 49.5568C159.248 49.5947 159.041 49.6136 158.791 49.6136C158.412 49.6136 158.041 49.5322 157.678 49.3693C157.318 49.2064 157.018 48.9583 156.78 48.625C156.545 48.2917 156.428 47.8712 156.428 47.3636V38.6818Z" fill="#9CA3AF"/>
</g>
<path d="M255 38.2998C253.873 38.2998 252.771 38.6341 251.833 39.2604C250.896 39.8868 250.165 40.777 249.734 41.8185C249.303 42.86 249.19 44.0061 249.41 45.1118C249.63 46.2175 250.172 47.2332 250.97 48.0303C251.767 48.8275 252.782 49.3703 253.888 49.5903C254.994 49.8102 256.14 49.6973 257.181 49.2659C258.223 48.8345 259.113 48.1039 259.739 47.1666C260.366 46.2292 260.7 45.1272 260.7 43.9998" stroke="white" stroke-width="1.5" stroke-linecap="round" stroke-linejoin="round"/>
<path d="M255 34.5C253.121 34.5 251.284 35.0572 249.722 36.101C248.16 37.1449 246.942 38.6286 246.223 40.3645C245.504 42.1004 245.316 44.0105 245.683 45.8534C246.049 47.6962 246.954 49.3889 248.282 50.7175C249.611 52.0461 251.304 52.9509 253.147 53.3175C254.989 53.684 256.9 53.4959 258.635 52.7769C260.371 52.0578 261.855 50.8402 262.899 49.2779C263.943 47.7157 264.5 45.8789 264.5 44M258.525 40.476L254.5 44.5" stroke="white" stroke-width="1.5" stroke-linecap="round" stroke-linejoin="round"/>
<path d="M263.94 37.8443L260.7 38.3003L261.156 35.0603C261.159 35.0227 261.151 34.9849 261.133 34.9518C261.115 34.9187 261.087 34.8918 261.054 34.8746C261.02 34.8573 260.982 34.8504 260.945 34.8548C260.907 34.8592 260.872 34.8747 260.843 34.8993L258.695 37.0363C258.474 37.2586 258.312 37.5319 258.223 37.8319C258.133 38.132 258.119 38.4496 258.182 38.7563L258.524 40.4763L260.244 40.8173C260.551 40.8802 260.868 40.8662 261.168 40.7767C261.468 40.6872 261.742 40.525 261.964 40.3043L264.1 38.1573C264.125 38.1286 264.14 38.0931 264.145 38.0555C264.149 38.0179 264.142 37.9798 264.125 37.9462C264.107 37.9125 264.08 37.8848 264.047 37.8667C264.014 37.8486 263.976 37.8408 263.938 37.8443" stroke="white" stroke-width="1.5" stroke-linecap="round" stroke-linejoin="round"/>
<path d="M297 45V40H292" stroke="white" stroke-width="1.5" stroke-linecap="round" stroke-linejoin="round"/>
<path d="M297 40L292 45C291.117 45.883 290.676 46.324 290.135 46.373C290.045 46.381 289.955 46.381 289.865 46.373C289.324 46.323 288.883 45.883 288 45C287.117 44.117 286.676 43.676 286.135 43.627C286.045 43.6189 285.955 43.6189 285.865 43.627C285.324 43.677 284.883 44.117 284 45L281 48" stroke="white" stroke-width="1.5" stroke-linecap="round" stroke-linejoin="round"/>
<rect x="311" y="24" width="40" height="40" rx="20" fill="#8759FF"/>
<path d="M322.984 44L331 35.9844L339.016 44L337.562 45.4062L331.984 39.8281V52.0156H330.016V39.8281L324.391 45.4062L322.984 44Z" fill="white"/>
<path d="M99.2924 84.2102V83.2727H105.838V84.2102H103.094V92H102.037V84.2102H99.2924ZM106.653 92V85.4545H107.624V86.4432H107.693C107.812 86.1193 108.028 85.8565 108.34 85.6548C108.653 85.4531 109.005 85.3523 109.397 85.3523C109.471 85.3523 109.563 85.3537 109.674 85.3565C109.785 85.3594 109.869 85.3636 109.926 85.3693V86.392C109.892 86.3835 109.813 86.3707 109.691 86.3537C109.572 86.3338 109.445 86.3239 109.312 86.3239C108.994 86.3239 108.71 86.3906 108.46 86.5241C108.213 86.6548 108.017 86.8366 107.872 87.0696C107.73 87.2997 107.659 87.5625 107.659 87.858V92H106.653ZM113.044 92.1534C112.629 92.1534 112.253 92.0753 111.915 91.919C111.577 91.7599 111.308 91.5312 111.109 91.233C110.91 90.9318 110.811 90.5682 110.811 90.142C110.811 89.767 110.885 89.4631 111.032 89.2301C111.18 88.9943 111.378 88.8097 111.625 88.6761C111.872 88.5426 112.145 88.4432 112.443 88.3778C112.744 88.3097 113.047 88.2557 113.351 88.2159C113.748 88.1648 114.071 88.1264 114.318 88.1009C114.568 88.0724 114.75 88.0256 114.863 87.9602C114.98 87.8949 115.038 87.7812 115.038 87.6193V87.5852C115.038 87.1648 114.923 86.8381 114.693 86.6051C114.466 86.3722 114.121 86.2557 113.657 86.2557C113.177 86.2557 112.801 86.3608 112.528 86.571C112.256 86.7812 112.064 87.0057 111.953 87.2443L110.998 86.9034C111.169 86.5057 111.396 86.196 111.68 85.9744C111.967 85.75 112.28 85.5937 112.618 85.5057C112.959 85.4148 113.294 85.3693 113.623 85.3693C113.834 85.3693 114.075 85.3949 114.348 85.446C114.623 85.4943 114.889 85.5952 115.145 85.7486C115.403 85.902 115.618 86.1335 115.788 86.4432C115.959 86.7528 116.044 87.1676 116.044 87.6875V92H115.038V91.1136H114.987C114.919 91.2557 114.805 91.4077 114.646 91.5696C114.487 91.7315 114.275 91.8693 114.011 91.983C113.747 92.0966 113.425 92.1534 113.044 92.1534ZM113.197 91.25C113.595 91.25 113.93 91.1719 114.203 91.0156C114.479 90.8594 114.686 90.6577 114.825 90.4105C114.967 90.1634 115.038 89.9034 115.038 89.6307V88.7102C114.996 88.7614 114.902 88.8082 114.757 88.8509C114.615 88.8906 114.45 88.9261 114.263 88.9574C114.078 88.9858 113.898 89.0114 113.721 89.0341C113.548 89.054 113.407 89.071 113.3 89.0852C113.038 89.1193 112.794 89.1747 112.567 89.2514C112.342 89.3253 112.16 89.4375 112.021 89.5881C111.885 89.7358 111.817 89.9375 111.817 90.1932C111.817 90.5426 111.946 90.8068 112.204 90.9858C112.466 91.1619 112.797 91.25 113.197 91.25ZM120.351 92.1364C119.806 92.1364 119.324 91.9986 118.906 91.723C118.489 91.4446 118.162 91.0526 117.926 90.5469C117.691 90.0384 117.573 89.4375 117.573 88.7443C117.573 88.0568 117.691 87.4602 117.926 86.9545C118.162 86.4489 118.49 86.0582 118.911 85.7827C119.331 85.5071 119.817 85.3693 120.368 85.3693C120.794 85.3693 121.131 85.4403 121.378 85.5824C121.628 85.7216 121.818 85.8807 121.949 86.0597C122.083 86.2358 122.186 86.3807 122.26 86.4943H122.345V83.2727H123.351V92H122.379V90.9943H122.26C122.186 91.1136 122.081 91.2642 121.945 91.446C121.808 91.625 121.614 91.7855 121.361 91.9276C121.108 92.0668 120.771 92.1364 120.351 92.1364ZM120.487 91.233C120.891 91.233 121.232 91.1278 121.51 90.9176C121.789 90.7045 122 90.4105 122.145 90.0355C122.29 89.6577 122.362 89.2216 122.362 88.7273C122.362 88.2386 122.291 87.8111 122.149 87.4446C122.007 87.0753 121.797 86.7884 121.519 86.5838C121.24 86.3764 120.896 86.2727 120.487 86.2727C120.061 86.2727 119.706 86.3821 119.422 86.6009C119.141 86.8168 118.929 87.1108 118.787 87.483C118.648 87.8523 118.578 88.267 118.578 88.7273C118.578 89.1932 118.649 89.6165 118.791 89.9972C118.936 90.375 119.149 90.6761 119.431 90.9006C119.715 91.1222 120.067 91.233 120.487 91.233ZM128.077 92.1364C127.446 92.1364 126.902 91.9972 126.445 91.7188C125.99 91.4375 125.639 91.0455 125.392 90.5426C125.148 90.0369 125.026 89.4489 125.026 88.7784C125.026 88.108 125.148 87.517 125.392 87.0057C125.639 86.4915 125.983 86.0909 126.423 85.804C126.867 85.5142 127.384 85.3693 127.975 85.3693C128.316 85.3693 128.652 85.4261 128.985 85.5398C129.317 85.6534 129.619 85.8381 129.892 86.0938C130.165 86.3466 130.382 86.6818 130.544 87.0994C130.706 87.517 130.787 88.0312 130.787 88.642V89.0682H125.742V88.1989H129.764C129.764 87.8295 129.691 87.5 129.543 87.2102C129.398 86.9205 129.191 86.6918 128.921 86.5241C128.654 86.3565 128.338 86.2727 127.975 86.2727C127.574 86.2727 127.227 86.3722 126.935 86.571C126.645 86.767 126.422 87.0227 126.266 87.3381C126.11 87.6534 126.031 87.9915 126.031 88.3523V88.9318C126.031 89.4261 126.117 89.8452 126.287 90.1889C126.46 90.5298 126.7 90.7898 127.007 90.9688C127.314 91.1449 127.671 91.233 128.077 91.233C128.341 91.233 128.58 91.196 128.793 91.1222C129.009 91.0455 129.195 90.9318 129.351 90.7812C129.507 90.6278 129.628 90.4375 129.713 90.2102L130.685 90.483C130.583 90.8125 130.411 91.1023 130.169 91.3523C129.928 91.5994 129.629 91.7926 129.274 91.9318C128.919 92.0682 128.52 92.1364 128.077 92.1364ZM135.692 94.4545V85.4545H136.664V86.4943H136.783C136.857 86.3807 136.959 86.2358 137.09 86.0597C137.223 85.8807 137.414 85.7216 137.661 85.5824C137.911 85.4403 138.249 85.3693 138.675 85.3693C139.226 85.3693 139.712 85.5071 140.132 85.7827C140.553 86.0582 140.881 86.4489 141.117 86.9545C141.352 87.4602 141.47 88.0568 141.47 88.7443C141.47 89.4375 141.352 90.0384 141.117 90.5469C140.881 91.0526 140.554 91.4446 140.137 91.723C139.719 91.9986 139.237 92.1364 138.692 92.1364C138.271 92.1364 137.935 92.0668 137.682 91.9276C137.429 91.7855 137.235 91.625 137.098 91.446C136.962 91.2642 136.857 91.1136 136.783 90.9943H136.698V94.4545H135.692ZM136.681 88.7273C136.681 89.2216 136.753 89.6577 136.898 90.0355C137.043 90.4105 137.254 90.7045 137.533 90.9176C137.811 91.1278 138.152 91.233 138.556 91.233C138.976 91.233 139.327 91.1222 139.608 90.9006C139.892 90.6761 140.105 90.375 140.247 89.9972C140.392 89.6165 140.465 89.1932 140.465 88.7273C140.465 88.267 140.394 87.8523 140.252 87.483C140.112 87.1108 139.901 86.8168 139.617 86.6009C139.335 86.3821 138.982 86.2727 138.556 86.2727C138.146 86.2727 137.803 86.3764 137.524 86.5838C137.246 86.7884 137.036 87.0753 136.894 87.4446C136.752 87.8111 136.681 88.2386 136.681 88.7273ZM143.004 92V85.4545H143.976V86.4432H144.044C144.164 86.1193 144.379 85.8565 144.692 85.6548C145.004 85.4531 145.357 85.3523 145.749 85.3523C145.823 85.3523 145.915 85.3537 146.026 85.3565C146.137 85.3594 146.22 85.3636 146.277 85.3693V86.392C146.243 86.3835 146.165 86.3707 146.043 86.3537C145.923 86.3338 145.797 86.3239 145.664 86.3239C145.345 86.3239 145.061 86.3906 144.811 86.5241C144.564 86.6548 144.368 86.8366 144.223 87.0696C144.081 87.2997 144.01 87.5625 144.01 87.858V92H143.004ZM149.929 92.1364C149.338 92.1364 148.82 91.9957 148.374 91.7145C147.931 91.4332 147.584 91.0398 147.334 90.5341C147.087 90.0284 146.963 89.4375 146.963 88.7614C146.963 88.0795 147.087 87.4844 147.334 86.9759C147.584 86.4673 147.931 86.0724 148.374 85.7912C148.82 85.5099 149.338 85.3693 149.929 85.3693C150.52 85.3693 151.037 85.5099 151.48 85.7912C151.926 86.0724 152.273 86.4673 152.52 86.9759C152.77 87.4844 152.895 88.0795 152.895 88.7614C152.895 89.4375 152.77 90.0284 152.52 90.5341C152.273 91.0398 151.926 91.4332 151.48 91.7145C151.037 91.9957 150.52 92.1364 149.929 92.1364ZM149.929 91.233C150.378 91.233 150.747 91.1179 151.037 90.8878C151.327 90.6577 151.541 90.3551 151.681 89.9801C151.82 89.6051 151.889 89.1989 151.889 88.7614C151.889 88.3239 151.82 87.9162 151.681 87.5384C151.541 87.1605 151.327 86.8551 151.037 86.6222C150.747 86.3892 150.378 86.2727 149.929 86.2727C149.48 86.2727 149.111 86.3892 148.821 86.6222C148.531 86.8551 148.317 87.1605 148.178 87.5384C148.039 87.9162 147.969 88.3239 147.969 88.7614C147.969 89.1989 148.039 89.6051 148.178 89.9801C148.317 90.3551 148.531 90.6577 148.821 90.8878C149.111 91.1179 149.48 91.233 149.929 91.233ZM154.43 92V85.4545H155.402V86.4773H155.487C155.623 86.1278 155.844 85.8565 156.148 85.6634C156.452 85.4673 156.817 85.3693 157.243 85.3693C157.675 85.3693 158.034 85.4673 158.321 85.6634C158.611 85.8565 158.836 86.1278 158.998 86.4773H159.067C159.234 86.1392 159.486 85.8707 159.821 85.6719C160.156 85.4702 160.558 85.3693 161.027 85.3693C161.612 85.3693 162.091 85.5526 162.463 85.919C162.835 86.2827 163.021 86.8494 163.021 87.6193V92H162.015V87.6193C162.015 87.1364 161.883 86.7912 161.619 86.5838C161.355 86.3764 161.044 86.2727 160.686 86.2727C160.226 86.2727 159.869 86.4119 159.616 86.6903C159.363 86.9659 159.237 87.3153 159.237 87.7386V92H158.214V87.517C158.214 87.1449 158.094 86.8452 157.852 86.6179C157.611 86.3878 157.3 86.2727 156.919 86.2727C156.657 86.2727 156.413 86.3423 156.186 86.4815C155.961 86.6207 155.78 86.8139 155.64 87.0611C155.504 87.3054 155.436 87.5881 155.436 87.9091V92H154.43ZM164.86 94.4545V85.4545H165.831V86.4943H165.951C166.025 86.3807 166.127 86.2358 166.258 86.0597C166.391 85.8807 166.581 85.7216 166.829 85.5824C167.079 85.4403 167.417 85.3693 167.843 85.3693C168.394 85.3693 168.88 85.5071 169.3 85.7827C169.721 86.0582 170.049 86.4489 170.285 86.9545C170.52 87.4602 170.638 88.0568 170.638 88.7443C170.638 89.4375 170.52 90.0384 170.285 90.5469C170.049 91.0526 169.722 91.4446 169.305 91.723C168.887 91.9986 168.405 92.1364 167.86 92.1364C167.439 92.1364 167.103 92.0668 166.85 91.9276C166.597 91.7855 166.403 91.625 166.266 91.446C166.13 91.2642 166.025 91.1136 165.951 90.9943H165.866V94.4545H164.86ZM165.849 88.7273C165.849 89.2216 165.921 89.6577 166.066 90.0355C166.211 90.4105 166.422 90.7045 166.701 90.9176C166.979 91.1278 167.32 91.233 167.724 91.233C168.144 91.233 168.495 91.1222 168.776 90.9006C169.06 90.6761 169.273 90.375 169.415 89.9972C169.56 89.6165 169.633 89.1932 169.633 88.7273C169.633 88.267 169.562 87.8523 169.42 87.483C169.28 87.1108 169.069 86.8168 168.785 86.6009C168.503 86.3821 168.15 86.2727 167.724 86.2727C167.314 86.2727 166.971 86.3764 166.692 86.5838C166.414 86.7884 166.204 87.0753 166.062 87.4446C165.92 87.8111 165.849 88.2386 165.849 88.7273ZM175.019 85.4545V86.3068H171.627V85.4545H175.019ZM172.616 83.8864H173.621V90.125C173.621 90.4091 173.662 90.6222 173.745 90.7642C173.83 90.9034 173.938 90.9972 174.069 91.0455C174.202 91.0909 174.343 91.1136 174.491 91.1136C174.601 91.1136 174.692 91.108 174.763 91.0966C174.834 91.0824 174.891 91.071 174.934 91.0625L175.138 91.9659C175.07 91.9915 174.975 92.017 174.853 92.0426C174.731 92.071 174.576 92.0852 174.388 92.0852C174.104 92.0852 173.826 92.0241 173.553 91.902C173.283 91.7798 173.059 91.5938 172.88 91.3438C172.704 91.0938 172.616 90.7784 172.616 90.3977V83.8864ZM182.566 92.1364C181.952 92.1364 181.424 91.9915 180.981 91.7017C180.537 91.4119 180.197 91.0128 179.958 90.5043C179.719 89.9957 179.6 89.4148 179.6 88.7614C179.6 88.0966 179.722 87.5099 179.966 87.0014C180.214 86.4901 180.557 86.0909 180.998 85.804C181.441 85.5142 181.958 85.3693 182.549 85.3693C183.009 85.3693 183.424 85.4545 183.793 85.625C184.162 85.7955 184.465 86.0341 184.701 86.3409C184.937 86.6477 185.083 87.0057 185.14 87.4148H184.134C184.057 87.1165 183.887 86.8523 183.623 86.6222C183.361 86.3892 183.009 86.2727 182.566 86.2727C182.174 86.2727 181.83 86.375 181.535 86.5795C181.242 86.7812 181.013 87.0668 180.849 87.4361C180.687 87.8026 180.606 88.233 180.606 88.7273C180.606 89.233 180.685 89.6733 180.844 90.0483C181.006 90.4233 181.233 90.7145 181.526 90.9219C181.822 91.1293 182.168 91.233 182.566 91.233C182.827 91.233 183.064 91.1875 183.278 91.0966C183.491 91.0057 183.671 90.875 183.819 90.7045C183.966 90.5341 184.072 90.3295 184.134 90.0909H185.14C185.083 90.4773 184.942 90.8253 184.718 91.1349C184.496 91.4418 184.202 91.6861 183.836 91.8679C183.472 92.0469 183.049 92.1364 182.566 92.1364ZM189.269 92.1364C188.678 92.1364 188.16 91.9957 187.714 91.7145C187.27 91.4332 186.924 91.0398 186.674 90.5341C186.427 90.0284 186.303 89.4375 186.303 88.7614C186.303 88.0795 186.427 87.4844 186.674 86.9759C186.924 86.4673 187.27 86.0724 187.714 85.7912C188.16 85.5099 188.678 85.3693 189.269 85.3693C189.86 85.3693 190.377 85.5099 190.82 85.7912C191.266 86.0724 191.613 86.4673 191.86 86.9759C192.11 87.4844 192.235 88.0795 192.235 88.7614C192.235 89.4375 192.11 90.0284 191.86 90.5341C191.613 91.0398 191.266 91.4332 190.82 91.7145C190.377 91.9957 189.86 92.1364 189.269 92.1364ZM189.269 91.233C189.718 91.233 190.087 91.1179 190.377 90.8878C190.667 90.6577 190.881 90.3551 191.02 89.9801C191.16 89.6051 191.229 89.1989 191.229 88.7614C191.229 88.3239 191.16 87.9162 191.02 87.5384C190.881 87.1605 190.667 86.8551 190.377 86.6222C190.087 86.3892 189.718 86.2727 189.269 86.2727C188.82 86.2727 188.451 86.3892 188.161 86.6222C187.871 86.8551 187.657 87.1605 187.518 87.5384C187.378 87.9162 187.309 88.3239 187.309 88.7614C187.309 89.1989 187.378 89.6051 187.518 89.9801C187.657 90.3551 187.871 90.6577 188.161 90.8878C188.451 91.1179 188.82 91.233 189.269 91.233ZM198.406 86.9205L197.503 87.1761C197.446 87.0256 197.362 86.8793 197.252 86.7372C197.144 86.5923 196.996 86.473 196.808 86.3793C196.621 86.2855 196.381 86.2386 196.088 86.2386C195.688 86.2386 195.354 86.331 195.087 86.5156C194.823 86.6974 194.691 86.929 194.691 87.2102C194.691 87.4602 194.781 87.6577 194.963 87.8026C195.145 87.9474 195.429 88.0682 195.816 88.1648L196.787 88.4034C197.372 88.5455 197.808 88.7628 198.095 89.0554C198.382 89.3452 198.526 89.7187 198.526 90.1761C198.526 90.5511 198.418 90.8864 198.202 91.1818C197.989 91.4773 197.691 91.7102 197.307 91.8807C196.923 92.0511 196.477 92.1364 195.969 92.1364C195.301 92.1364 194.749 91.9915 194.311 91.7017C193.874 91.4119 193.597 90.9886 193.48 90.4318L194.435 90.1932C194.526 90.5455 194.698 90.8097 194.95 90.9858C195.206 91.1619 195.54 91.25 195.952 91.25C196.421 91.25 196.793 91.1506 197.068 90.9517C197.347 90.75 197.486 90.5085 197.486 90.2273C197.486 90 197.406 89.8097 197.247 89.6562C197.088 89.5 196.844 89.3835 196.514 89.3068L195.423 89.0511C194.824 88.9091 194.384 88.6889 194.102 88.3906C193.824 88.0895 193.685 87.7131 193.685 87.2614C193.685 86.892 193.789 86.5653 193.996 86.2812C194.206 85.9972 194.492 85.7741 194.852 85.6122C195.216 85.4503 195.628 85.3693 196.088 85.3693C196.736 85.3693 197.244 85.5114 197.614 85.7955C197.986 86.0795 198.25 86.4545 198.406 86.9205ZM202.886 85.4545V86.3068H199.494V85.4545H202.886ZM200.483 83.8864H201.488V90.125C201.488 90.4091 201.53 90.6222 201.612 90.7642C201.697 90.9034 201.805 90.9972 201.936 91.0455C202.069 91.0909 202.21 91.1136 202.358 91.1136C202.469 91.1136 202.559 91.108 202.631 91.0966C202.702 91.0824 202.758 91.071 202.801 91.0625L203.006 91.9659C202.937 91.9915 202.842 92.017 202.72 92.0426C202.598 92.071 202.443 92.0852 202.256 92.0852C201.971 92.0852 201.693 92.0241 201.42 91.902C201.15 91.7798 200.926 91.5938 200.747 91.3438C200.571 91.0938 200.483 90.7784 200.483 90.3977V83.8864ZM208.918 86.9205L208.015 87.1761C207.958 87.0256 207.874 86.8793 207.763 86.7372C207.655 86.5923 207.508 86.473 207.32 86.3793C207.133 86.2855 206.893 86.2386 206.6 86.2386C206.199 86.2386 205.866 86.331 205.599 86.5156C205.334 86.6974 205.202 86.929 205.202 87.2102C205.202 87.4602 205.293 87.6577 205.475 87.8026C205.657 87.9474 205.941 88.0682 206.327 88.1648L207.299 88.4034C207.884 88.5455 208.32 88.7628 208.607 89.0554C208.894 89.3452 209.037 89.7187 209.037 90.1761C209.037 90.5511 208.93 90.8864 208.714 91.1818C208.501 91.4773 208.202 91.7102 207.819 91.8807C207.435 92.0511 206.989 92.1364 206.481 92.1364C205.813 92.1364 205.26 91.9915 204.823 91.7017C204.385 91.4119 204.108 90.9886 203.992 90.4318L204.947 90.1932C205.037 90.5455 205.209 90.8097 205.462 90.9858C205.718 91.1619 206.052 91.25 206.464 91.25C206.932 91.25 207.305 91.1506 207.58 90.9517C207.858 90.75 207.998 90.5085 207.998 90.2273C207.998 90 207.918 89.8097 207.759 89.6562C207.6 89.5 207.356 89.3835 207.026 89.3068L205.935 89.0511C205.336 88.9091 204.895 88.6889 204.614 88.3906C204.336 88.0895 204.197 87.7131 204.197 87.2614C204.197 86.892 204.3 86.5653 204.508 86.2812C204.718 85.9972 205.003 85.7741 205.364 85.6122C205.728 85.4503 206.14 85.3693 206.6 85.3693C207.248 85.3693 207.756 85.5114 208.126 85.7955C208.498 86.0795 208.762 86.4545 208.918 86.9205ZM216.756 92.1193C216.114 92.1193 215.567 91.9446 215.115 91.5952C214.664 91.2429 214.318 90.733 214.08 90.0653C213.841 89.3949 213.722 88.5852 213.722 87.6364C213.722 86.6932 213.841 85.8878 214.08 85.2202C214.321 84.5497 214.668 84.0384 215.119 83.6861C215.574 83.331 216.119 83.1534 216.756 83.1534C217.392 83.1534 217.936 83.331 218.388 83.6861C218.843 84.0384 219.189 84.5497 219.428 85.2202C219.669 85.8878 219.79 86.6932 219.79 87.6364C219.79 88.5852 219.671 89.3949 219.432 90.0653C219.193 90.733 218.848 91.2429 218.396 91.5952C217.945 91.9446 217.398 92.1193 216.756 92.1193ZM216.756 91.1818C217.392 91.1818 217.887 90.875 218.239 90.2614C218.591 89.6477 218.767 88.7727 218.767 87.6364C218.767 86.8807 218.686 86.2372 218.524 85.706C218.365 85.1747 218.135 84.7699 217.834 84.4915C217.536 84.2131 217.176 84.0739 216.756 84.0739C216.125 84.0739 215.632 84.3849 215.277 85.0071C214.922 85.6264 214.744 86.5028 214.744 87.6364C214.744 88.392 214.824 89.0341 214.983 89.5625C215.142 90.0909 215.371 90.4929 215.669 90.7685C215.97 91.044 216.333 91.1818 216.756 91.1818ZM221.855 92.0682C221.644 92.0682 221.464 91.9929 221.313 91.8423C221.163 91.6918 221.088 91.5114 221.088 91.3011C221.088 91.0909 221.163 90.9105 221.313 90.7599C221.464 90.6094 221.644 90.5341 221.855 90.5341C222.065 90.5341 222.245 90.6094 222.396 90.7599C222.546 90.9105 222.622 91.0909 222.622 91.3011C222.622 91.4403 222.586 91.5682 222.515 91.6847C222.447 91.8011 222.355 91.8949 222.238 91.9659C222.124 92.0341 221.997 92.0682 221.855 92.0682ZM226.951 92.1193C226.309 92.1193 225.762 91.9446 225.311 91.5952C224.859 91.2429 224.514 90.733 224.275 90.0653C224.036 89.3949 223.917 88.5852 223.917 87.6364C223.917 86.6932 224.036 85.8878 224.275 85.2202C224.517 84.5497 224.863 84.0384 225.315 83.6861C225.769 83.331 226.315 83.1534 226.951 83.1534C227.588 83.1534 228.132 83.331 228.583 83.6861C229.038 84.0384 229.384 84.5497 229.623 85.2202C229.865 85.8878 229.985 86.6932 229.985 87.6364C229.985 88.5852 229.866 89.3949 229.627 90.0653C229.389 90.733 229.044 91.2429 228.592 91.5952C228.14 91.9446 227.593 92.1193 226.951 92.1193ZM226.951 91.1818C227.588 91.1818 228.082 90.875 228.434 90.2614C228.786 89.6477 228.963 88.7727 228.963 87.6364C228.963 86.8807 228.882 86.2372 228.72 85.706C228.561 85.1747 228.33 84.7699 228.029 84.4915C227.731 84.2131 227.372 84.0739 226.951 84.0739C226.32 84.0739 225.828 84.3849 225.472 85.0071C225.117 85.6264 224.94 86.5028 224.94 87.6364C224.94 88.392 225.019 89.0341 225.178 89.5625C225.338 90.0909 225.566 90.4929 225.865 90.7685C226.166 91.044 226.528 91.1818 226.951 91.1818ZM234.332 92.1193C233.832 92.1193 233.382 92.0199 232.981 91.821C232.58 91.6222 232.259 91.3494 232.018 91.0028C231.776 90.6562 231.644 90.2614 231.622 89.8182H232.644C232.684 90.2131 232.863 90.5398 233.181 90.7983C233.502 91.054 233.886 91.1818 234.332 91.1818C234.69 91.1818 235.008 91.098 235.286 90.9304C235.568 90.7628 235.788 90.5327 235.947 90.2401C236.109 89.9446 236.19 89.6108 236.19 89.2386C236.19 88.858 236.106 88.5185 235.938 88.2202C235.774 87.919 235.546 87.6818 235.257 87.5085C234.967 87.3352 234.636 87.2472 234.264 87.2443C233.997 87.2415 233.722 87.2827 233.441 87.3679C233.16 87.4503 232.928 87.5568 232.747 87.6875L231.758 87.5682L232.286 83.2727H236.82V84.2102H233.173L232.866 86.7841H232.917C233.096 86.642 233.32 86.5241 233.59 86.4304C233.86 86.3366 234.142 86.2898 234.434 86.2898C234.968 86.2898 235.444 86.4176 235.862 86.6733C236.282 86.9261 236.612 87.2727 236.85 87.7131C237.092 88.1534 237.213 88.6562 237.213 89.2216C237.213 89.7784 237.088 90.2756 236.838 90.7131C236.59 91.1477 236.249 91.4915 235.815 91.7443C235.38 91.9943 234.886 92.1193 234.332 92.1193ZM244.224 92.1534C243.809 92.1534 243.432 92.0753 243.094 91.919C242.756 91.7599 242.488 91.5312 242.289 91.233C242.09 90.9318 241.991 90.5682 241.991 90.142C241.991 89.767 242.064 89.4631 242.212 89.2301C242.36 88.9943 242.557 88.8097 242.805 88.6761C243.052 88.5426 243.324 88.4432 243.623 88.3778C243.924 88.3097 244.226 88.2557 244.53 88.2159C244.928 88.1648 245.251 88.1264 245.498 88.1009C245.748 88.0724 245.93 88.0256 246.043 87.9602C246.16 87.8949 246.218 87.7812 246.218 87.6193V87.5852C246.218 87.1648 246.103 86.8381 245.873 86.6051C245.645 86.3722 245.3 86.2557 244.837 86.2557C244.357 86.2557 243.981 86.3608 243.708 86.571C243.435 86.7812 243.243 87.0057 243.133 87.2443L242.178 86.9034C242.349 86.5057 242.576 86.196 242.86 85.9744C243.147 85.75 243.459 85.5937 243.797 85.5057C244.138 85.4148 244.474 85.3693 244.803 85.3693C245.013 85.3693 245.255 85.3949 245.528 85.446C245.803 85.4943 246.069 85.5952 246.324 85.7486C246.583 85.902 246.797 86.1335 246.968 86.4432C247.138 86.7528 247.224 87.1676 247.224 87.6875V92H246.218V91.1136H246.167C246.099 91.2557 245.985 91.4077 245.826 91.5696C245.667 91.7315 245.455 91.8693 245.191 91.983C244.927 92.0966 244.604 92.1534 244.224 92.1534ZM244.377 91.25C244.775 91.25 245.11 91.1719 245.383 91.0156C245.658 90.8594 245.866 90.6577 246.005 90.4105C246.147 90.1634 246.218 89.9034 246.218 89.6307V88.7102C246.175 88.7614 246.081 88.8082 245.937 88.8509C245.795 88.8906 245.63 88.9261 245.442 88.9574C245.258 88.9858 245.077 89.0114 244.901 89.0341C244.728 89.054 244.587 89.071 244.479 89.0852C244.218 89.1193 243.974 89.1747 243.746 89.2514C243.522 89.3253 243.34 89.4375 243.201 89.5881C243.064 89.7358 242.996 89.9375 242.996 90.1932C242.996 90.5426 243.126 90.8068 243.384 90.9858C243.645 91.1619 243.976 91.25 244.377 91.25ZM252.809 87.7898V88.7273H248.991V87.7898H252.809ZM257.221 94.5909C256.735 94.5909 256.317 94.5284 255.968 94.4034C255.618 94.2812 255.327 94.1193 255.094 93.9176C254.864 93.7188 254.681 93.5057 254.545 93.2784L255.346 92.7159C255.437 92.8352 255.552 92.9716 255.691 93.125C255.83 93.2812 256.02 93.4162 256.262 93.5298C256.506 93.6463 256.826 93.7045 257.221 93.7045C257.749 93.7045 258.185 93.5767 258.529 93.321C258.873 93.0653 259.045 92.6648 259.045 92.1193V90.7898H258.959C258.885 90.9091 258.78 91.0568 258.644 91.233C258.51 91.4062 258.317 91.5611 258.064 91.6974C257.814 91.831 257.476 91.8977 257.05 91.8977C256.522 91.8977 256.047 91.7727 255.627 91.5227C255.209 91.2727 254.878 90.9091 254.634 90.4318C254.393 89.9545 254.272 89.375 254.272 88.6932C254.272 88.0227 254.39 87.4389 254.626 86.9418C254.861 86.4418 255.189 86.0554 255.61 85.7827C256.03 85.5071 256.516 85.3693 257.067 85.3693C257.493 85.3693 257.831 85.4403 258.081 85.5824C258.334 85.7216 258.528 85.8807 258.661 86.0597C258.797 86.2358 258.903 86.3807 258.976 86.4943H259.079V85.4545H260.05V92.1875C260.05 92.75 259.922 93.2074 259.667 93.5597C259.414 93.9148 259.073 94.1747 258.644 94.3395C258.218 94.5071 257.743 94.5909 257.221 94.5909ZM257.187 90.9943C257.59 90.9943 257.931 90.902 258.209 90.7173C258.488 90.5327 258.699 90.267 258.844 89.9205C258.989 89.5739 259.062 89.1591 259.062 88.6761C259.062 88.2045 258.991 87.7884 258.849 87.4276C258.706 87.0668 258.496 86.7841 258.218 86.5795C257.939 86.375 257.596 86.2727 257.187 86.2727C256.76 86.2727 256.405 86.3807 256.121 86.5966C255.84 86.8125 255.628 87.1023 255.486 87.4659C255.347 87.8295 255.278 88.233 255.278 88.6761C255.278 89.1307 255.349 89.5327 255.491 89.8821C255.635 90.2287 255.849 90.5014 256.13 90.7003C256.414 90.8963 256.766 90.9943 257.187 90.9943ZM262.028 92V83.2727H264.976C265.661 83.2727 266.221 83.3963 266.655 83.6435C267.093 83.8878 267.417 84.2188 267.627 84.6364C267.837 85.054 267.942 85.5199 267.942 86.0341C267.942 86.5483 267.837 87.0156 267.627 87.4361C267.42 87.8565 267.099 88.1918 266.664 88.4418C266.229 88.6889 265.672 88.8125 264.993 88.8125H262.88V87.875H264.959C265.428 87.875 265.805 87.794 266.089 87.6321C266.373 87.4702 266.579 87.2514 266.706 86.9759C266.837 86.6974 266.903 86.3835 266.903 86.0341C266.903 85.6847 266.837 85.3722 266.706 85.0966C266.579 84.821 266.371 84.6051 266.084 84.4489C265.797 84.2898 265.417 84.2102 264.942 84.2102H263.084V92H262.028ZM269.167 84.2102V83.2727H275.713V84.2102H272.969V92H271.912V84.2102H269.167Z" fill="#6B7280"/>
<defs>
<clipPath id="clip0_6382_6413">
<rect width="203" height="19" fill="white" transform="translate(40 34.5)"/>
</clipPath>
</defs>
</svg>
