<svg width="24" height="24" viewBox="0 0 24 24" fill="none" xmlns="http://www.w3.org/2000/svg">
<path d="M11.9998 6.2998C10.8725 6.2998 9.77042 6.6341 8.83306 7.26043C7.8957 7.88675 7.16511 8.77697 6.73369 9.81851C6.30227 10.86 6.1894 12.0061 6.40933 13.1118C6.62927 14.2175 7.17214 15.2332 7.9693 16.0303C8.76646 16.8275 9.7821 17.3703 10.8878 17.5903C11.9935 17.8102 13.1396 17.6973 14.1811 17.2659C15.2226 16.8345 16.1129 16.1039 16.7392 15.1666C17.3655 14.2292 17.6998 13.1272 17.6998 11.9998" stroke="white" stroke-width="1.5" stroke-linecap="round" stroke-linejoin="round"/>
<path d="M12 2.5C10.1211 2.5 8.28435 3.05717 6.72209 4.10104C5.15982 5.14491 3.94218 6.62861 3.22315 8.36451C2.50412 10.1004 2.31598 12.0105 2.68254 13.8534C3.0491 15.6962 3.95389 17.3889 5.28249 18.7175C6.61109 20.0461 8.30383 20.9509 10.1466 21.3175C11.9895 21.684 13.8996 21.4959 15.6355 20.7769C17.3714 20.0578 18.8551 18.8402 19.899 17.2779C20.9428 15.7157 21.5 13.8789 21.5 12M15.525 8.476L11.5 12.5" stroke="white" stroke-width="1.5" stroke-linecap="round" stroke-linejoin="round"/>
<path d="M20.9402 5.84434L17.7002 6.30034L18.1562 3.06034C18.1596 3.02271 18.1516 2.98493 18.1334 2.95184C18.1152 2.91875 18.0875 2.89184 18.0539 2.87456C18.0203 2.85728 17.9823 2.8504 17.9448 2.85482C17.9072 2.85923 17.8719 2.87473 17.8432 2.89934L15.6952 5.03634C15.4746 5.25856 15.3123 5.53187 15.2228 5.83194C15.1333 6.13202 15.1194 6.44957 15.1822 6.75634L15.5242 8.47634L17.2442 8.81734C17.551 8.88019 17.8685 8.86624 18.1686 8.77674C18.4687 8.68724 18.742 8.52496 18.9642 8.30434L21.1002 6.15734C21.1249 6.12861 21.1405 6.09315 21.1448 6.05552C21.1492 6.01789 21.1423 5.97981 21.1249 5.94616C21.1075 5.91251 21.0804 5.88484 21.0471 5.8667C21.0139 5.84855 20.9759 5.84077 20.9382 5.84434" stroke="white" stroke-width="1.5" stroke-linecap="round" stroke-linejoin="round"/>
</svg>
